# xmcd
#
# Track frame offsets: 
#        150
#        18618
#        40902
#        54306
#        76992
#        119218
#        137571
#        149707
#        252695
#        311118
#
# Disc length: 4562 seconds
#
# Revision: 1
# Processed by: cddbd v1.5.2PL0 Copyright (c) Steve Scherf et al.
# Submitted via: ExactAudioCopyFreeDBPlugin 1.0
#
DISCID=9a11d00a
DTITLE=The Allman Brothers Band - 1989 - Dreams Cd 2
DYEAR=1989
DGENRE=
TTITLE0=Statesboro Blues
TTITLE1=Hoochie Coochie Man
TTITLE2=Midnight Rider
TTITLE3=Dimples
TTITLE4=I'm Gonna move to the Outskirts of Town
TTITLE5=Revival
TTITLE6=One More Ride
TTITLE7=Whipping Post
TTITLE8=In Memory of Elizabeth Reed
TTITLE9=Drunken Hearted Boy
EXTD=
EXTT0=
EXTT1=
EXTT2=
EXTT3=
EXTT4=
EXTT5=
EXTT6=
EXTT7=
EXTT8=
EXTT9=
PLAYORDER=
